<svg xmlns="http://www.w3.org/2000/svg" xmlns:xlink="http://www.w3.org/1999/xlink" width="39" height="34" viewBox="0 0 39 34"><defs><path id="f46ea" d="M1099 2032v-17h17v17zm9-1v-7h7v-1h-7v-7h-1v7h-7v1h7v7z"/><path id="f46eb" d="M1107 2031v-7h-7v-1h7v-7h1v7h7v1h-7v7z"/><path id="f46ec" d="M1121 2049v-17h17v17zm9-1v-7h7v-1h-7v-7h-1v7h-7v1h7v7z"/><path id="f46ed" d="M1129 2048v-7h-7v-1h7v-7h1v7h7v1h-7v7z"/><clipPath id="f46ee"><use fill="#fff" xlink:href="#f46ea"/></clipPath><clipPath id="f46ef"><use fill="#fff" xlink:href="#f46eb"/></clipPath><clipPath id="f46eg"><use fill="#fff" xlink:href="#f46ec"/></clipPath><clipPath id="f46eh"><use fill="#fff" xlink:href="#f46ed"/></clipPath></defs><g><g transform="translate(-1099 -2015)"><use fill="#9173e6" xlink:href="#f46eb"/><use fill="#fff" fill-opacity="0" stroke="#9173e6" stroke-linecap="round" stroke-linejoin="round" stroke-miterlimit="50" stroke-width="2" clip-path="url(&quot;#f46ee&quot;)" xlink:href="#f46eb"/><use fill="#fff" fill-opacity="0" stroke="#5e42b0" stroke-miterlimit="50" stroke-width="6" clip-path="url(&quot;#f46ef&quot;)" xlink:href="#f46eb"/></g><g opacity=".3" transform="translate(-1099 -2015)"><use fill="#9173e6" xlink:href="#f46ed"/><use fill="#fff" fill-opacity="0" stroke="#9173e6" stroke-linecap="round" stroke-linejoin="round" stroke-miterlimit="50" stroke-width="2" clip-path="url(&quot;#f46eg&quot;)" xlink:href="#f46ed"/><use fill="#fff" fill-opacity="0" stroke="#5e42b0" stroke-miterlimit="50" stroke-width="6" clip-path="url(&quot;#f46eh&quot;)" xlink:href="#f46ed"/></g></g></svg>